HIERARCHY
ROOT root
{
	OFFSET 0.000000 0.000000 0.000000
	CHANNELS 6 Xposition Yposition Zposition Zrotation Yrotation Xrotation
	JOINT lhip
	{
		OFFSET 0.058581 -0.082280 -0.017664
		CHANNELS 3 Zrotation Yrotation Xrotation
		JOINT lknee
		{
			OFFSET 0.043451 -0.386469 0.008037
			CHANNELS 3 Zrotation Yrotation Xrotation
			JOINT lankle
			{
				OFFSET -0.014790 -0.426874 -0.037428
				CHANNELS 3 Zrotation Yrotation Xrotation
				JOINT ltoe
				{
					OFFSET 0.041054 -0.060286 0.122042
					CHANNELS 3 Zrotation Yrotation Xrotation
					End Site
					{
						OFFSET 0.000000 0.000000 0.000000
					}
				}
			}
		}
	}
	JOINT rhip
	{
		OFFSET -0.060310 -0.090513 -0.013543
		CHANNELS 3 Zrotation Yrotation Xrotation
		JOINT rknee
		{
			OFFSET -0.043257 -0.383688 -0.004843
			CHANNELS 3 Zrotation Yrotation Xrotation
			JOINT rankle
			{
				OFFSET 0.019056 -0.420046 -0.034562
				CHANNELS 3 Zrotation Yrotation Xrotation
				JOINT rtoe
				{
					OFFSET -0.034840 -0.062106 0.130323
					CHANNELS 3 Zrotation Yrotation Xrotation
					End Site
					{
						OFFSET 0.000000 0.000000 0.000000
					}
				}
			}
		}
	}
	JOINT lowerback
	{
		OFFSET 0.004439 0.124404 -0.038385
		CHANNELS 3 Zrotation Yrotation Xrotation
		JOINT upperback
		{
			OFFSET 0.004488 0.137956 0.026820
			CHANNELS 3 Zrotation Yrotation Xrotation
			JOINT chest
			{
				OFFSET -0.002265 0.056032 0.002855
				CHANNELS 3 Zrotation Yrotation Xrotation
				JOINT lowerneck
				{
					OFFSET -0.013390 0.211636 -0.033468
					CHANNELS 3 Zrotation Yrotation Xrotation
					JOINT upperneck
					{
						OFFSET 0.010113 0.088937 0.050410
						CHANNELS 3 Zrotation Yrotation Xrotation
						End Site
						{
							OFFSET 0.000000 0.000000 0.000000
						}
					}
				}
				JOINT lclavicle
				{
					OFFSET 0.071702 0.114000 -0.018898
					CHANNELS 3 Zrotation Yrotation Xrotation
					JOINT lshoulder
					{
						OFFSET 0.122921 0.045205 -0.019046
						CHANNELS 3 Zrotation Yrotation Xrotation
						JOINT lelbow
						{
							OFFSET 0.255332 -0.015649 -0.022946
							CHANNELS 3 Zrotation Yrotation Xrotation
							JOINT lwrist
							{
								OFFSET 0.265709 0.012698 -0.007375
								CHANNELS 3 Zrotation Yrotation Xrotation
								End Site
								{
									OFFSET 0.000000 0.000000 0.000000
								}
							}
						}
					}
				}
				JOINT rclavicle
				{
					OFFSET -0.082954 0.112472 -0.023707
					CHANNELS 3 Zrotation Yrotation Xrotation
					JOINT rshoulder
					{
						OFFSET -0.113228 0.046853 -0.008472
						CHANNELS 3 Zrotation Yrotation Xrotation
						JOINT relbow
						{
							OFFSET -0.260127 -0.014369 -0.031269
							CHANNELS 3 Zrotation Yrotation Xrotation
							JOINT rwrist
							{
								OFFSET -0.269108 0.006794 -0.006027
								CHANNELS 3 Zrotation Yrotation Xrotation
								End Site
								{
									OFFSET 0.000000 0.000000 0.000000
								}
							}
						}
					}
				}
			}
		}
	}
}
MOTION
Frames: 7
Frame Time: 0.033333
0.080663 0.572655 0.869363 -11.700448 -0.598402 93.590644 13.523344 8.939718 -30.962097 -8.612171 9.466602 49.783918 2.887354 8.260003 -30.215077 0.000000 -0.000000 0.000000 -17.501507 -7.048407 -36.491482 0.699665 -2.024033 52.153313 5.338509 -1.840768 -13.885490 0.000000 -0.000000 0.000000 -3.388899 1.510078 30.881498 3.484941 -0.938724 -0.501130 -0.339022 0.072172 -1.840730 -1.118690 -7.759647 -18.404223 -7.271347 -27.274394 12.075513 -31.295242 -7.688837 0.510471 -36.536666 -14.499753 13.461937 1.678444 -61.327415 10.310497 1.106318 -12.821964 -10.865585 36.895011 14.702348 4.785342 41.789325 21.521877 12.365332 -32.549176 45.626933 -42.440091 1.824038 9.716184 -28.460032 
0.081406 0.572477 0.869083 -12.101434 -1.166673 92.824364 12.868701 8.999516 -30.018859 -8.126537 9.670504 49.876355 3.024390 7.928470 -30.507972 0.000000 -0.000000 0.000000 -18.174137 -6.974391 -35.984348 0.326742 -2.044435 52.482422 6.213853 -1.076495 -15.753143 0.000000 -0.000000 0.000000 -2.144448 2.173660 29.758265 2.487702 -0.615394 1.783049 -1.594039 -0.306983 -1.375389 -1.612324 -8.955849 -17.151894 -3.538587 -28.493990 8.893099 -30.899911 -10.569304 2.776980 -35.050987 -15.333564 12.946497 2.146886 -61.523404 10.355628 1.000918 -12.862485 -10.609594 37.882032 15.782005 5.592337 41.368104 21.018595 10.521346 -34.673065 45.597868 -43.942805 0.911825 10.019203 -28.205186 
0.082306 0.571621 0.868900 -12.342943 -1.056959 92.699872 12.841971 9.214991 -29.863184 -7.844912 9.709392 50.076665 2.911098 7.700211 -30.850194 0.000000 -0.000000 0.000000 -18.063915 -6.906665 -35.986976 0.323091 -1.891939 52.640357 7.584125 -0.726024 -17.986170 0.000000 -0.000000 0.000000 -1.924283 1.934088 29.844135 2.307304 -0.577650 1.783413 -1.652061 0.151223 -1.603116 -2.025183 -9.358779 -16.422550 -2.138950 -29.032888 7.957221 -30.966272 -11.184456 3.326487 -35.614144 -15.319584 12.811708 2.038702 -61.718010 11.213897 0.323121 -13.018439 -9.864801 37.636766 16.297822 5.858533 41.697102 20.006415 9.781613 -34.959753 46.155409 -44.277304 0.106612 10.394386 -28.762823 
0.082957 0.571003 0.869080 -12.619515 -1.004193 92.565656 12.867805 9.260317 -29.632592 -7.689968 9.862305 50.176473 2.890438 7.662681 -31.219363 0.000000 -0.000000 0.000000 -18.007141 -6.793825 -35.947886 0.534555 -1.655061 52.665387 8.285287 -0.766249 -19.408351 0.000000 -0.000000 0.000000 -1.863135 1.796667 29.860089 2.203527 -0.632049 1.664072 -1.648025 0.184181 -1.405922 -1.750268 -9.822247 -16.741879 -1.938939 -29.316680 8.007275 -31.158922 -11.265928 3.422702 -36.610000 -15.671475 12.657732 4.034972 -61.578230 8.784923 1.312938 -12.812332 -11.007627 37.598323 16.408636 6.013347 41.894155 19.886860 9.690326 -34.725925 46.084390 -44.391423 -1.178906 10.307166 -28.973479 
0.083003 0.570868 0.869062 -12.678903 -0.983423 92.627577 12.913097 9.235477 -29.679500 -7.706563 9.909579 50.186290 2.918840 7.686377 -31.219479 0.000000 -0.000000 0.000000 -17.987071 -6.780608 -36.013541 0.515278 -1.687485 52.645691 8.276203 -0.709947 -19.387827 0.000000 -0.000000 0.000000 -1.868663 1.736521 29.975250 2.186737 -0.625568 1.401125 -1.637211 0.174652 -1.446003 -1.676143 -9.901338 -16.930536 -2.001239 -29.318379 8.293130 -31.216316 -10.995940 3.350432 -37.185476 -15.800200 12.652854 5.181036 -61.501397 6.906820 2.041256 -12.712680 -12.189543 37.597458 16.188472 5.964164 42.054483 19.831789 9.887598 -34.813133 46.121040 -44.580221 -1.452485 10.297796 -29.020801 
0.082912 0.570512 0.869204 -12.764185 -0.986492 92.828933 12.981254 9.133424 -29.788793 -7.730591 10.109871 50.118208 3.007536 7.711381 -31.267993 0.000000 -0.000000 0.000000 -17.950450 -6.810209 -36.191391 0.511306 -1.676220 52.559311 8.251404 -0.622457 -19.367458 0.000000 -0.000000 0.000000 -1.946755 1.567733 30.430028 2.109382 -0.631143 0.629527 -1.541913 0.157580 -1.765988 -1.666946 -10.035361 -17.010465 -1.937577 -29.111686 8.573332 -31.217227 -10.151788 3.042510 -38.760118 -16.009468 12.724255 8.032610 -61.383198 1.138389 5.014131 -11.974568 -16.972094 37.446895 15.426356 5.729908 42.724800 19.767115 10.608975 -34.857988 46.263480 -45.120749 -2.346979 10.139300 -29.465273 
0.082868 0.570587 0.869107 -12.894109 -1.110257 92.897821 12.941692 8.952743 -29.795509 -7.702584 10.342541 50.060250 3.068693 7.861750 -31.272048 0.000000 -0.000000 0.000000 -17.967865 -6.921700 -36.352156 0.538593 -1.480935 52.550956 8.263184 -0.575111 -19.296529 0.000000 -0.000000 0.000000 -2.020406 1.534861 30.288645 1.975902 -0.611440 0.470490 -1.438889 0.115937 -1.508069 -1.859259 -10.502303 -17.135477 -1.578222 -28.811581 8.465587 -31.322178 -9.851352 2.841065 -40.068708 -16.599817 12.710095 12.196018 -60.881487 -6.579410 9.089208 -10.289094 -21.707027 37.406550 15.135292 5.393631 42.971624 19.701266 11.194423 -34.904030 46.286362 -46.721980 -3.698993 9.731500 -31.727070 
